<svg width="26" height="26" fill="none" xmlns="http://www.w3.org/2000/svg"><circle cx="13" cy="13" r="13" fill="#FF8A00"/><path d="M16.412 17.294h1.647L23 12.354l-1.647-1.648-4.94 4.941v1.647zM20.177 12.588l.941.942" stroke="#fff" stroke-width="1.5" stroke-linecap="round" stroke-linejoin="round"/><path d="M18.294 19.334a.796.796 0 01-.806.784H7.807A.796.796 0 017 19.334V6.784C7 6.351 7.361 6 7.807 6h6.101c.225 0 .44.091.592.251l3.58 3.759a.772.772 0 01.214.533" stroke="#fff" stroke-width="1.5" stroke-linecap="round" stroke-linejoin="round"/><path d="M18.294 10.706h-3.922a.784.784 0 01-.784-.784V6M10.765 16.353h2.823M10.765 13.53h2.823" stroke="#fff" stroke-width="1.5" stroke-linecap="round" stroke-linejoin="round"/></svg>